<?xml version="1.0" standalone="no"?>
<!DOCTYPE svg PUBLIC "-//W3C//DTD SVG 20010904//EN"
 "http://www.w3.org/TR/2001/REC-SVG-20010904/DTD/svg10.dtd">
<svg version="1.0" xmlns="http://www.w3.org/2000/svg"
 width="540.000000pt" height="540.000000pt" viewBox="0 0 540.000000 540.000000"
 preserveAspectRatio="xMidYMid meet">

<g transform="translate(0.000000,540.000000) scale(0.100000,-0.100000)"
fill="#000000" stroke="none">
<path d="M2625 4616 c-247 -61 -381 -319 -289 -556 24 -62 87 -145 134 -176
22 -15 40 -35 40 -45 0 -20 -15 -24 -135 -34 -118 -10 -253 -44 -401 -101 -78
-30 -148 -54 -157 -54 -31 0 -58 38 -107 150 -64 145 -103 255 -136 382 -41
165 -81 224 -165 250 -84 25 -177 -34 -205 -130 -22 -73 -7 -140 45 -214 60
-84 66 -99 166 -437 52 -176 101 -333 109 -348 26 -51 92 -93 146 -93 17 0
133 29 259 65 295 85 292 86 304 -85 4 -47 14 -180 23 -297 22 -288 42 -254
-258 -454 -127 -84 -247 -167 -266 -183 -65 -57 -93 -148 -69 -228 9 -30 103
-177 254 -400 132 -194 245 -363 252 -376 16 -30 5 -47 -76 -118 -37 -32 -76
-68 -85 -79 -25 -29 -40 -90 -32 -131 8 -44 57 -102 101 -120 74 -32 111 -16
353 149 175 119 200 148 200 233 0 53 2 47 -195 409 -204 375 -206 380 -195
409 6 18 67 64 204 155 184 122 239 151 294 151 37 0 100 -38 117 -70 9 -17
87 -322 175 -678 88 -356 169 -666 181 -690 25 -49 68 -79 124 -86 22 -3 128
-11 236 -16 175 -9 202 -9 238 6 77 30 112 122 76 198 -24 51 -54 69 -175 105
-133 40 -150 49 -166 86 -8 16 -65 289 -129 605 -126 631 -156 836 -136 926
14 60 26 66 60 30 13 -13 31 -26 42 -29 27 -7 24 19 -7 65 -15 21 -24 41 -21
44 3 3 23 12 44 19 35 12 38 16 41 54 2 23 7 41 13 41 5 0 18 14 28 30 21 35
20 36 75 -59 37 -63 40 -91 12 -91 -8 0 -28 -12 -45 -26 -55 -46 -30 -124 39
-124 20 0 30 -5 30 -15 0 -23 38 -37 81 -30 31 5 39 4 39 -8 0 -8 -7 -20 -15
-27 -14 -11 -14 -15 2 -32 11 -12 25 -17 38 -14 17 4 27 -6 57 -58 49 -84 81
-121 133 -152 124 -72 260 -18 281 113 12 80 -39 164 -134 219 -97 55 -119 87
-172 249 -18 55 -56 150 -85 212 -50 105 -169 297 -200 323 -23 19 -18 36 19
58 36 21 90 88 102 124 4 14 -1 27 -14 41 -18 18 -24 19 -51 7 -31 -12 -87
-86 -97 -127 -4 -13 -10 -23 -14 -23 -4 0 -35 31 -69 69 -80 91 -200 187 -279
224 -51 24 -84 31 -170 38 -59 4 -109 8 -111 8 -2 1 25 28 60 60 102 93 147
208 136 344 -15 182 -161 337 -344 367 -72 12 -95 12 -158 -4z m221 -88 c74
-27 137 -86 176 -166 29 -58 33 -76 33 -147 0 -69 -4 -89 -31 -146 -21 -44
-46 -78 -79 -105 -82 -68 -95 -82 -95 -106 0 -60 55 -88 171 -88 36 0 88 -7
116 -15 133 -39 329 -226 497 -473 66 -97 149 -259 141 -272 -4 -6 -32 -10
-63 -11 -62 -1 -58 -5 32 -28 l58 -16 42 -116 c57 -156 72 -178 171 -243 116
-77 142 -122 110 -190 -38 -79 -154 -67 -223 23 -18 24 -31 50 -28 57 3 8 -3
18 -12 23 -18 10 -72 99 -72 120 0 6 6 11 14 11 24 0 47 40 35 61 -13 25 -61
49 -96 49 -24 0 -33 9 -62 63 -55 100 -122 209 -153 249 -50 65 -37 83 82 116
28 8 20 8 -37 4 -56 -4 -73 -2 -73 8 0 23 -50 80 -88 99 -20 10 -56 24 -80 30
-23 7 -42 16 -42 20 0 15 34 51 60 64 20 10 26 21 28 53 4 48 -11 64 -66 71
-49 7 -78 -18 -87 -74 -17 -99 -35 -143 -68 -163 -38 -24 -47 -25 -47 -5 0 8
-4 15 -10 15 -5 0 -10 -7 -10 -15 0 -31 -29 -27 -61 9 -38 44 -64 48 -55 9 3
-16 9 -50 13 -77 6 -47 5 -49 -15 -44 -19 5 -22 2 -22 -24 0 -57 -11 -65 -107
-73 -48 -4 -97 -11 -108 -16 -13 -6 1 -8 45 -4 36 3 79 1 95 -3 33 -10 32 -8
18 -107 l-8 -60 -98 -42 c-96 -41 -163 -81 -153 -90 2 -3 56 18 120 46 120 54
136 58 136 40 0 -6 16 -29 35 -50 19 -22 35 -44 35 -49 0 -6 14 -10 30 -10 24
0 33 -6 40 -26 6 -14 8 -29 5 -34 -3 -4 -1 -19 4 -32 l10 -23 0 23 c2 45 19
62 62 62 66 0 123 -72 67 -83 l-23 -4 22 -8 c18 -6 23 -17 28 -64 19 -176 48
-339 146 -826 60 -297 116 -559 125 -583 22 -59 61 -84 197 -126 151 -47 177
-72 146 -139 -20 -43 -40 -46 -274 -33 -233 13 -256 19 -275 66 -5 14 -82 315
-170 670 -88 355 -168 664 -179 687 -34 71 -121 119 -202 111 -21 -2 -39 0
-39 4 0 18 -34 6 -67 -22 -18 -17 -44 -30 -58 -30 -14 0 -26 -7 -29 -17 -4
-10 -74 -63 -157 -117 -232 -154 -240 -171 -160 -329 28 -56 118 -226 201
-377 106 -194 150 -285 150 -308 0 -46 -38 -82 -225 -208 -131 -88 -167 -108
-197 -108 -53 -1 -88 34 -88 88 0 39 4 45 97 132 l98 92 0 48 c0 45 -7 59 -76
159 -79 115 -313 460 -393 579 -40 60 -46 77 -46 120 0 33 7 62 20 83 13 22
101 87 275 203 140 94 255 174 255 178 1 4 9 18 20 30 19 24 20 24 64 7 50
-19 86 -9 86 25 0 36 -45 47 -104 24 -13 -5 -14 2 -10 43 5 43 -28 542 -41
621 -8 44 -65 99 -112 108 -29 5 -85 -7 -274 -62 -236 -68 -239 -68 -273 -51
-19 9 -41 29 -49 44 -8 15 -54 163 -102 328 -99 338 -106 357 -171 456 -39 61
-46 79 -46 121 0 83 58 136 129 116 43 -11 68 -49 93 -144 59 -218 161 -488
215 -570 23 -36 74 -64 115 -64 20 0 87 20 149 45 145 59 268 92 395 106 157
17 164 18 193 43 22 19 28 32 28 66 0 38 -5 47 -40 74 -68 55 -111 102 -136
152 -20 42 -24 64 -24 149 0 115 16 158 89 233 97 103 233 132 372 80z"/>
<path d="M3073 3632 c-36 -23 -35 -108 1 -157 13 -18 15 -18 39 -2 32 21 43
69 27 125 -8 33 -15 42 -33 42 -12 0 -27 -4 -34 -8z"/>
<path d="M2828 3499 c-24 -13 -23 -54 2 -79 23 -23 88 -28 108 -8 20 20 14 65
-10 82 -25 18 -74 20 -100 5z"/>
<path d="M3475 3380 c-3 -5 3 -10 15 -10 12 0 18 5 15 10 -3 6 -10 10 -15 10
-5 0 -12 -4 -15 -10z"/>
<path d="M2430 3022 l-23 -18 36 4 c20 2 42 10 48 18 18 22 -34 18 -61 -4z"/>
<path d="M2607 2970 c-19 -27 -11 -57 19 -77 31 -20 80 -9 101 24 15 23 15 26
-4 44 -11 11 -38 23 -60 26 -34 4 -43 2 -56 -17z"/>
<path d="M2470 2670 c0 -12 48 -25 58 -16 8 9 -18 26 -40 26 -10 0 -18 -4 -18
-10z"/>
<path d="M3024 2445 c-8 -21 3 -45 20 -45 19 0 28 14 20 33 -8 22 -34 29 -40
12z"/>
<path d="M3837 3254 c-11 -12 3 -24 28 -24 13 0 26 4 29 9 10 15 -43 29 -57
15z"/>
<path d="M3542 2418 c15 -22 58 -44 58 -28 0 11 -49 50 -63 50 -5 0 -3 -10 5
-22z"/>
</g>
</svg>
