<?xml version="1.0" standalone="no"?>
<!DOCTYPE svg PUBLIC "-//W3C//DTD SVG 20010904//EN"
 "http://www.w3.org/TR/2001/REC-SVG-20010904/DTD/svg10.dtd">
<svg version="1.0" xmlns="http://www.w3.org/2000/svg"
 width="540.000000pt" height="540.000000pt" viewBox="0 0 540.000000 540.000000"
 preserveAspectRatio="xMidYMid meet">

<g transform="translate(0.000000,540.000000) scale(0.100000,-0.100000)"
fill="#000000" stroke="none">
<path d="M2535 4206 c-396 -126 -1977 -640 -1995 -649 -23 -12 -26 -20 -32
-97 -3 -47 -6 -171 -7 -275 -1 -145 -4 -195 -15 -210 -10 -15 -15 -70 -19
-200 -7 -239 -26 -476 -39 -492 -12 -14 -1 -93 13 -93 5 0 9 -7 9 -15 0 -25
35 -35 119 -35 l81 0 0 -32 c0 -18 3 -63 7 -100 6 -65 5 -68 -15 -68 -19 0
-21 -5 -19 -42 l3 -43 232 2 c128 1 232 -2 232 -7 0 -4 13 -13 29 -18 25 -9
31 -17 37 -59 4 -26 10 -57 15 -69 8 -24 58 -18 -419 -46 -117 -6 -207 -15
-200 -19 58 -30 1362 -174 2208 -244 492 -40 555 -44 765 -55 585 -29 817 -24
1095 25 230 41 353 76 334 95 -11 11 -191 36 -417 59 -97 10 -180 20 -183 23
-3 4 0 16 6 29 7 12 20 50 29 83 l16 61 65 8 c232 26 345 49 399 81 74 43 91
73 91 164 0 90 -17 112 -86 112 -40 0 -45 2 -39 18 16 39 25 162 21 286 -5
133 -13 187 -41 265 -18 52 -20 108 -3 113 8 3 12 35 12 99 1 113 -15 149 -64
149 l-30 0 0 -97 0 -96 -57 84 c-31 46 -97 138 -147 203 -123 163 -173 193
-425 256 -97 24 -277 60 -303 60 -5 0 -8 100 -8 223 0 219 0 224 -22 244 -16
14 -189 65 -593 173 -313 83 -577 153 -585 155 -8 2 -33 -2 -55 -9z m610 -179
c303 -81 567 -151 588 -157 l37 -11 1 -217 c1 -119 1 -222 0 -227 0 -6 43 -18
97 -27 53 -9 79 -15 57 -13 -22 3 -92 7 -155 11 -166 10 -164 16 -60 -199 133
-275 151 -317 136 -317 -7 0 -26 30 -41 68 -55 132 -155 329 -189 374 -38 50
-93 78 -152 78 -20 0 -102 -9 -183 -21 -180 -25 -230 -46 -249 -103 -21 -66
-40 -206 -53 -397 -9 -132 -16 -186 -26 -192 -7 -4 -12 -22 -12 -40 1 -18 3
-24 6 -14 7 26 23 10 23 -23 0 -34 -27 -49 -33 -17 -4 19 -4 18 -6 -4 0 -15 6
-32 14 -39 22 -18 18 -40 -6 -40 -22 0 -22 1 -16 178 9 270 52 596 85 641 10
14 34 31 53 38 32 12 32 13 4 7 -16 -3 -39 -14 -51 -25 -11 -10 -28 -19 -37
-19 -35 0 -86 -29 -101 -58 -30 -59 -73 -388 -83 -648 -5 -127 -3 -159 10
-193 12 -30 15 -57 10 -101 l-6 -60 -78 0 -79 0 0 904 0 905 63 -18 c34 -10
277 -78 540 -152 l477 -133 0 -173 0 -172 -27 -4 c-21 -3 -18 -4 12 -6 l40 -1
-5 187 -5 186 -545 153 c-300 85 -548 154 -552 154 -5 0 -8 -414 -8 -920 l0
-920 85 0 c65 0 85 -3 85 -14 0 -7 3 -28 6 -45 l7 -31 -1161 0 c-818 0 -1163
3 -1167 11 -4 6 -4 34 -1 62 l7 52 122 3 c154 3 1675 41 1782 45 l80 2 0 45
c0 25 5 48 10 52 6 4 -21 7 -60 6 l-70 -1 55 -8 c32 -4 -28 -6 -140 -4 -129 1
-170 0 -120 -5 48 -5 -6 -7 -150 -5 -150 1 -195 0 -135 -5 59 -5 10 -7 -145
-5 -146 1 -192 0 -120 -4 91 -5 6 -10 -415 -26 -291 -11 -505 -21 -474 -23 30
-2 387 9 792 23 911 31 907 31 907 6 0 -24 -10 -24 -1000 -51 -393 -11 -762
-22 -819 -25 l-104 -5 8 327 c4 181 10 452 14 603 3 151 9 280 13 286 4 6 29
17 54 23 93 24 621 195 1284 416 382 127 686 224 700 222 14 -2 273 -70 575
-150z m369 -656 c21 -5 52 -22 68 -38 38 -35 196 -355 237 -479 31 -93 41
-144 21 -114 -6 9 -10 10 -10 3 0 -6 5 -15 10 -18 6 -4 10 -58 10 -131 l0
-124 -27 -1 -28 -1 30 -8 c17 -4 23 -8 15 -9 -11 -1 -12 -3 -2 -9 9 -6 12 -51
10 -185 l-3 -177 -50 0 c-27 0 -93 -3 -146 -6 l-96 -7 -28 52 c-16 28 -30 49
-32 47 -2 -2 5 -21 16 -42 25 -46 26 -54 6 -54 -8 0 -21 12 -29 28 -20 39 -54
68 -111 94 -47 22 -61 23 -235 21 -132 -1 -187 2 -192 10 -14 22 -9 97 6 97 8
0 16 -10 18 -22 2 -16 10 -23 28 -25 22 -1 22 -1 3 4 -14 3 -23 12 -23 24 0
15 8 19 38 21 l37 1 -37 4 c-41 5 -45 15 -32 82 6 29 9 31 53 33 l46 1 -50 6
c-36 4 -51 11 -53 23 -3 14 7 18 55 21 l58 3 -62 2 c-66 2 -81 16 -43 40 16
10 20 23 20 68 0 41 -5 60 -16 69 -15 10 -15 28 0 211 16 200 36 334 57 387
17 40 48 52 189 76 193 31 221 34 274 22z m489 -8 c-7 -2 -19 -2 -25 0 -7 3
-2 5 12 5 14 0 19 -2 13 -5z m44 -9 c-3 -3 -12 -4 -19 -1 -8 3 -5 6 6 6 11 1
17 -2 13 -5z m306 -215 c12 -6 34 -23 49 -37 24 -22 26 -31 22 -66 -5 -33 -1
-48 18 -76 20 -29 30 -35 62 -36 24 0 41 -6 47 -17 15 -25 -8 -32 -103 -31
-56 1 -86 -2 -82 -8 4 -6 -4 -5 -16 2 -13 7 -36 9 -56 6 -24 -5 -50 0 -94 19
-59 25 -62 25 -117 11 -32 -9 -58 -14 -60 -13 -7 7 -33 152 -33 182 0 33 0 34
58 40 31 4 95 13 142 20 111 17 137 17 163 4z m150 -169 c-6 -6 -33 30 -33 44
0 6 9 0 20 -14 10 -14 16 -27 13 -30z m-592 -166 c17 -31 51 -76 74 -100 41
-42 43 -48 54 -131 7 -49 14 -103 17 -120 6 -38 7 -37 -39 -18 -20 8 -44 15
-54 14 -10 0 3 -7 29 -15 26 -8 50 -19 53 -24 4 -6 -3 -6 -20 0 -15 6 -41 10
-59 10 -54 0 -100 12 -84 21 10 7 10 9 -2 9 -13 0 -13 1 0 10 13 8 12 10 -3
10 -17 0 -18 8 -11 98 4 53 8 104 9 112 2 13 -10 72 -32 158 -4 17 -1 22 15
22 14 0 30 -17 53 -56z m81 6 c7 0 28 -56 28 -76 0 -20 -34 -17 -52 4 -8 9
-25 33 -37 53 l-21 37 37 -9 c21 -5 41 -9 45 -9z m271 -21 c127 -12 128 -13
122 -36 -4 -19 -2 -23 19 -23 14 0 31 9 39 19 13 20 16 20 149 4 124 -15 136
-18 133 -35 -3 -13 4 -22 20 -28 15 -6 25 -17 25 -29 0 -21 -17 -27 -105 -35
-22 -2 -10 -3 27 -2 81 2 97 13 81 56 -6 17 -8 30 -4 30 13 0 60 -171 67 -241
l7 -67 -43 -46 c-23 -25 -46 -43 -51 -40 -5 3 -7 9 -4 14 3 5 -7 17 -22 27
-23 15 -49 18 -163 18 -144 0 -194 -11 -205 -46 -4 -10 -12 -19 -19 -19 -20 0
-137 40 -179 61 -21 11 -43 17 -49 13 -7 -5 -8 -3 -3 6 5 9 2 10 -12 6 -12 -4
-20 -2 -20 6 -2 38 -25 208 -33 235 -8 32 -7 33 18 27 24 -4 23 -3 -5 10 -31
14 -45 36 -23 36 13 0 13 41 0 76 l-11 27 58 -6 c32 -4 116 -12 186 -18z
m-1293 -239 c0 -5 -4 -10 -10 -10 -5 0 -10 5 -10 10 0 6 5 10 10 10 6 0 10 -4
10 -10z m-2 -83 c2 -10 -3 -17 -12 -17 -9 0 -16 2 -16 4 0 2 -3 12 -6 21 -5
13 -2 16 12 13 10 -2 20 -11 22 -21z m4 -82 c-3 -46 -7 -55 -23 -55 -22 0 -22
-4 -8 60 15 69 35 66 31 -5z m916 -21 c2 21 6 27 18 22 8 -3 12 -2 9 4 -3 6 1
10 10 10 9 0 13 -4 10 -10 -3 -5 2 -10 13 -10 15 0 18 -7 17 -36 0 -19 3 -38
8 -41 6 -3 -1 -12 -14 -19 -17 -9 -19 -13 -8 -14 17 0 34 -28 24 -38 -3 -3 -5
1 -5 9 0 9 -3 10 -8 3 -4 -6 -25 -13 -48 -16 -40 -6 -41 -5 -36 21 3 14 8 28
11 31 14 11 31 50 22 50 -5 0 -11 -6 -14 -12 -8 -24 -20 2 -22 49 l-3 48 8
-40 c6 -33 7 -35 8 -11z m147 -14 c-20 -22 -31 -20 -22 5 4 8 14 15 23 15 16
0 16 -2 -1 -20z m29 -30 c-41 -42 -54 -49 -54 -26 0 22 47 66 71 66 19 0 18
-4 -17 -40z m775 -5 c0 -5 -4 -3 -9 5 -5 8 -9 22 -9 30 0 16 17 -16 18 -35z
m-649 6 c16 -16 31 -24 33 -18 2 6 6 3 10 -6 10 -27 -18 -21 -37 8 -9 14 -27
27 -40 31 -32 8 -90 -22 -82 -42 3 -8 2 -12 -4 -9 -5 3 -14 -3 -19 -14 -14
-25 -14 -41 -1 -41 6 0 10 8 10 18 0 14 2 15 10 2 8 -12 10 -12 16 3 8 21 34
22 60 2 18 -14 18 -14 -9 -15 -15 0 -43 -6 -62 -14 -25 -11 -35 -12 -39 -3 -3
7 -4 -1 -3 -18 l2 -30 63 3 c42 2 62 -1 57 -8 -3 -5 -1 -11 4 -11 26 -3 30 -4
37 -11 11 -12 -100 -10 -130 2 -19 7 -26 6 -26 -2 0 -8 -6 -6 -16 4 -26 26 -1
113 46 161 47 46 80 48 120 8z m608 -1 c-7 -10 -14 -17 -17 -15 -4 4 18 35 25
35 2 0 -1 -9 -8 -20z m-651 -6 c-3 -3 -12 -4 -19 -1 -8 3 -5 6 6 6 11 1 17 -2
13 -5z m675 -17 c3 -16 0 -23 -13 -23 -14 0 -15 4 -6 23 6 13 11 23 12 23 2 0
5 -10 7 -23z m-823 -68 c0 -47 4 -86 11 -93 6 -6 48 -10 108 -10 94 1 95 1 27
-6 l-70 -6 55 -3 c30 -2 61 -3 68 -2 13 2 15 -12 6 -46 -6 -21 -13 -23 -73
-25 l-66 -1 50 -7 c30 -4 -9 -6 -102 -6 -83 0 -158 -5 -165 -10 -8 -5 -7 -2 2
6 12 12 15 33 12 103 l-4 87 50 0 c74 0 82 5 82 56 0 24 2 44 5 44 2 0 4 -37
4 -81z m147 60 c3 -5 -8 -9 -25 -9 -22 0 -29 4 -25 14 5 14 40 11 50 -5z m163
10 c17 -6 31 -12 31 -12 0 -1 -7 -38 -15 -81 -8 -44 -14 -80 -13 -81 2 0 93 3
202 7 110 5 203 5 207 1 5 -5 1 -9 -9 -10 -9 -1 -73 -7 -142 -13 -68 -6 -157
-10 -196 -8 -40 2 -70 0 -67 -4 2 -5 -16 -8 -41 -8 -42 0 -46 2 -42 23 3 12 5
27 5 32 1 6 6 3 11 -5 7 -10 8 -3 5 25 -4 30 -3 35 4 20 7 -15 10 -1 10 53 1
39 5 72 10 72 4 0 22 -5 40 -11z m461 -74 c0 -74 0 -74 29 -82 29 -8 29 -8 15
-41 -14 -35 -34 -35 -34 -1 0 16 -4 19 -22 14 -20 -7 -21 -5 -15 46 4 30 7 73
7 97 0 23 5 42 10 42 6 0 10 -32 10 -75z m40 5 c0 -5 -4 -10 -10 -10 -5 0 -10
5 -10 10 0 6 5 10 10 10 6 0 10 -4 10 -10z m17 -12 c-3 -8 -6 -5 -6 6 -1 11 2
17 5 13 3 -3 4 -12 1 -19z m-600 -40 c-3 -7 -5 -2 -5 12 0 14 2 19 5 13 2 -7
2 -19 0 -25z m-104 15 c-7 -2 -21 -2 -30 0 -10 3 -4 5 12 5 17 0 24 -2 18 -5z
m687 -14 c0 -5 -4 -9 -10 -9 -5 0 -10 7 -10 16 0 8 5 12 10 9 6 -3 10 -10 10
-16z m-1750 -25 c0 -3 -9 -17 -19 -30 -35 -45 -84 -178 -102 -279 l-17 -100
-1 92 c-1 83 -3 93 -23 107 -12 9 -30 16 -40 16 -25 0 -23 16 4 34 37 26 58
21 59 -16 1 -27 2 -28 6 -8 8 52 14 72 20 66 4 -3 19 6 35 21 19 18 28 37 28
58 0 18 3 35 7 38 8 9 43 9 43 1z m-1499 -94 l-9 -55 -1 57 c-1 60 11 113 17
73 1 -11 -1 -45 -7 -75z m69 35 c0 -48 -3 -55 -20 -55 -17 0 -20 -8 -23 -72
l-3 -73 -2 73 c-2 66 0 74 18 79 17 4 20 14 20 54 0 27 2 49 5 49 3 0 5 -25 5
-55z m864 -67 c-7 -137 -21 -182 -19 -61 4 162 5 183 15 183 7 0 8 -41 4 -122z
m83 60 c-2 -13 -4 -3 -4 22 0 25 2 35 4 23 2 -13 2 -33 0 -45z m-1497 34 c0
-33 -32 -247 -37 -252 -6 -6 4 174 14 233 6 37 23 52 23 19z m386 -140 l3
-127 -14 120 c-18 158 -18 162 -3 147 8 -8 13 -56 14 -140z m1478 119 c-16
-16 -29 -29 -30 -28 -1 1 -4 14 -8 30 -6 26 -5 27 30 27 l37 0 -29 -29z m-104
-17 c0 -8 -5 -12 -10 -9 -6 4 -8 11 -5 16 9 14 15 11 15 -7z m-1820 -39 c0
-30 -20 -33 -43 -7 -20 22 -13 32 20 32 18 0 23 -5 23 -25z m3353 18 c-29 -2
-77 -2 -105 0 -29 2 -6 3 52 3 58 0 81 -1 53 -3z m466 -16 c8 -7 22 -11 33 -9
24 4 34 -24 17 -45 -12 -15 -12 -16 4 -10 15 6 17 3 12 -16 -4 -12 -9 -30 -12
-40 -2 -9 -9 -15 -14 -12 -5 4 -9 -3 -9 -14 0 -11 -4 -31 -10 -45 -8 -23 -13
-25 -35 -16 -18 7 -90 3 -246 -15 -285 -32 -271 -33 -257 5 6 18 7 46 3 68
-14 70 -14 82 3 91 10 5 94 14 187 20 94 6 202 14 240 18 l70 6 -40 19 -40 18
40 -6 c22 -3 46 -11 54 -17z m-1290 -19 c24 -79 42 -242 24 -224 -5 4 -17 51
-29 104 -11 53 -24 109 -28 125 -12 41 20 36 33 -5z m1149 25 c-15 -2 -42 -2
-60 0 -18 2 -6 4 27 4 33 0 48 -2 33 -4z m-151 -10 c-20 -2 -52 -2 -70 0 -17
2 0 4 38 4 39 0 53 -2 32 -4z m-3741 -45 c10 -20 12 -34 6 -40 -11 -11 -47 -7
-44 5 1 4 2 23 2 43 0 40 12 38 36 -8z m2104 32 c-20 -13 -143 -13 -135 0 3 6
39 10 78 10 50 0 67 -3 57 -10z m1433 3 c-24 -2 -62 -2 -85 0 -24 2 -5 4 42 4
47 0 66 -2 43 -4z m597 -9 c0 -8 -4 -12 -10 -9 -5 3 -10 10 -10 16 0 5 5 9 10
9 6 0 10 -7 10 -16z m-2387 -1 c-13 -2 -24 -13 -26 -26 -4 -18 -5 -17 -6 6 -1
23 3 27 27 26 22 -1 23 -2 5 -6z m-1225 -19 c12 -8 29 -28 37 -44 24 -46 17
-49 -8 -5 -15 27 -34 44 -57 52 -23 8 -28 12 -15 12 11 1 31 -6 43 -15z m-68
3 c0 -2 -10 -12 -22 -23 l-23 -19 19 23 c18 21 26 27 26 19z m50 -27 c11 -7 8
-10 -15 -10 -17 0 -35 -3 -41 -7 -5 -5 -1 0 9 10 22 20 26 20 47 7z m2906 -11
c-25 -20 -46 -72 -46 -118 0 -20 3 -22 28 -17 l27 7 -25 -21 c-43 -34 -96 -43
-232 -37 -112 4 -128 3 -131 -12 -3 -9 -5 36 -6 99 l-1 115 206 2 206 3 -26
-21z m-2656 -19 c0 -5 -2 -10 -4 -10 -3 0 -8 5 -11 10 -3 6 -1 10 4 10 6 0 11
-4 11 -10z m1647 -8 c-9 -10 -23 -33 -31 -52 -8 -19 -15 -29 -16 -22 0 23 43
92 58 92 3 0 -2 -8 -11 -18z m103 -45 c0 -7 -6 -3 -12 8 -6 11 -16 27 -22 35
-6 9 -1 5 12 -8 12 -13 22 -28 22 -35z m-2025 30 c-8 -13 -12 -27 -8 -30 3 -4
14 7 24 23 11 17 24 30 31 30 6 0 3 -7 -8 -15 -10 -8 -14 -15 -9 -16 6 -1 15
-3 20 -4 6 -2 14 -3 18 -4 12 -2 -12 -41 -25 -41 -6 0 -20 -7 -30 -17 -17 -15
-18 -15 -18 3 0 11 -5 25 -11 31 -9 9 -8 18 5 37 9 15 19 26 21 26 3 0 -1 -10
-10 -23z m1965 -18 c0 -5 -5 -7 -10 -4 -12 7 -42 -13 -36 -24 2 -3 -2 -12 -10
-19 -24 -22 -17 9 8 35 22 24 48 31 48 12z m-2053 -31 c-3 -7 -5 -2 -5 12 0
14 2 19 5 13 2 -7 2 -19 0 -25z m190 0 c-3 -7 -5 -2 -5 12 0 14 2 19 5 13 2
-7 2 -19 0 -25z m1176 -50 c40 -1 40 -2 7 -5 -42 -5 -1051 54 -1058 62 -8 7
-10 7 458 -20 476 -28 504 -29 495 -16 -3 5 -1 12 4 15 5 3 11 -3 14 -14 9
-35 27 -21 29 23 l1 42 4 -42 c4 -43 4 -43 46 -45z m1692 72 c-3 -5 -11 -10
-16 -10 -6 0 -7 5 -4 10 3 6 11 10 16 10 6 0 7 -4 4 -10z m-3038 -42 c-3 -7
-5 -2 -5 12 0 14 2 19 5 13 2 -7 2 -19 0 -25z m3068 22 c3 -5 -1 -10 -10 -10
-9 0 -13 5 -10 10 3 6 8 10 10 10 2 0 7 -4 10 -10z m-3002 -65 c24 -34 75 -88
62 -65 -4 8 -4 12 0 7 22 -20 11 -32 -32 -33 -36 0 -43 3 -38 15 5 12 3 13 -5
5 -14 -14 3 -54 22 -54 6 0 5 7 -3 18 -13 15 -12 16 3 3 10 -7 15 -17 12 -22
-3 -5 -1 -9 4 -9 17 0 22 13 9 29 -11 14 -10 14 5 2 21 -16 15 -29 -19 -42
-31 -11 -65 13 -56 39 4 10 2 13 -5 8 -8 -5 -10 -1 -5 10 4 10 2 15 -3 11 -6
-3 -9 14 -9 40 0 28 5 48 13 51 6 2 13 16 13 30 1 21 2 23 6 7 3 -11 15 -33
26 -50z m1978 56 c-16 -10 -6 -31 15 -31 8 0 14 -9 14 -21 0 -19 -2 -20 -17
-8 -15 12 -16 12 -10 -4 4 -10 7 -31 7 -46 0 -16 10 -39 23 -53 17 -18 21 -31
16 -54 -8 -43 -52 -84 -84 -78 -31 5 -32 -10 -3 -30 12 -9 17 -16 11 -16 -6 0
-21 12 -32 26 -11 14 -24 23 -29 20 -6 -3 -12 3 -15 14 -5 18 -3 18 18 4 21
-14 24 -13 48 15 45 53 48 200 6 232 -20 15 -21 19 -6 19 9 0 17 5 17 10 0 6
8 10 18 10 13 0 14 -2 3 -9z m1008 -18 c2 -2 -8 -3 -22 -3 -20 0 -25 4 -21 15
5 13 9 13 23 3 9 -7 18 -14 20 -15z m-2174 -18 c236 -14 446 -25 467 -25 31 0
38 -4 38 -19 0 -31 -182 -38 -455 -18 -121 9 -294 21 -385 27 -189 13 -254 19
-247 26 3 3 208 -9 456 -26 248 -17 466 -30 484 -28 17 2 -157 16 -388 32
-231 16 -429 30 -440 31 -11 1 -41 3 -67 4 -36 1 -48 5 -48 17 0 13 11 15 78
9 42 -3 270 -17 507 -30z m-698 -37 c-2 -13 -4 -3 -4 22 0 25 2 35 4 23 2 -13
2 -33 0 -45z m1930 20 c-3 -7 -5 -2 -5 12 0 14 2 19 5 13 2 -7 2 -19 0 -25z
m-2140 -10 c-3 -7 -5 -2 -5 12 0 14 2 19 5 13 2 -7 2 -19 0 -25z m2016 25 c-7
-2 -13 -14 -13 -25 0 -16 5 -19 21 -15 23 6 33 -10 27 -45 -4 -23 -4 -23 -18
5 -16 32 -40 36 -47 7 -6 -21 -18 -26 -27 -11 -9 15 5 41 21 41 11 0 14 7 11
25 -4 20 -1 25 16 24 11 0 15 -3 9 -6z m1077 -2 c0 -5 -7 -14 -15 -21 -13 -10
-18 -11 -28 -1 -9 10 -8 11 8 5 18 -7 18 -6 6 9 -12 15 -11 17 8 17 11 0 21
-4 21 -9z m-1603 -7 c-3 -3 -12 -4 -19 -1 -8 3 -5 6 6 6 11 1 17 -2 13 -5z
m191 -1 c-21 -2 -55 -2 -75 0 -21 2 -4 4 37 4 41 0 58 -2 38 -4z m900 -10
c-32 -2 -86 -2 -120 0 -35 2 -9 3 57 3 66 0 94 -1 63 -3z m-1111 -9 c-3 -3
-12 -4 -19 -1 -8 3 -5 6 6 6 11 1 17 -2 13 -5z m-1460 -56 c-3 -7 -5 -2 -5 12
0 14 2 19 5 13 2 -7 2 -19 0 -25z m563 7 c26 -19 46 -25 89 -25 32 0 61 6 70
14 9 7 26 17 38 20 19 6 25 1 38 -30 8 -20 15 -38 15 -40 0 -2 -74 -4 -164 -4
l-164 0 10 38 c17 62 19 63 68 27z m2504 16 c18 -7 18 -8 -5 -24 -32 -23 -91
-22 -113 2 -18 19 -17 20 26 24 70 6 72 6 92 -2z m-2884 -58 c-11 -17 -11 -17
-6 0 3 10 7 26 7 35 1 15 2 15 6 0 2 -10 -1 -25 -7 -35z m1203 40 c-13 -2 -35
-2 -50 0 -16 2 -5 4 22 4 28 0 40 -2 28 -4z m260 -23 l67 0 0 -46 0 -46 -47 6
c-27 3 -142 11 -258 17 -115 6 -211 13 -213 14 -1 1 5 17 15 34 l18 32 110 -6
c61 -3 131 -8 158 -11 44 -5 47 -4 47 17 0 21 1 21 18 6 13 -12 37 -17 85 -17z
m1020 -30 c-6 -7 -23 23 -23 40 0 8 6 4 13 -10 8 -14 12 -27 10 -30z m-688 1
c-8 -38 12 -51 36 -23 22 28 29 28 29 -3 0 -20 -5 -25 -25 -25 -27 0 -33 -18
-12 -39 10 -10 8 -12 -8 -9 -15 3 -19 10 -17 31 3 19 -1 27 -13 27 -24 0 -30
29 -9 50 25 25 27 25 19 -9z m1183 22 c-10 -2 -26 -2 -35 0 -10 3 -2 5 17 5
19 0 27 -2 18 -5z m-70 -10 c-10 -2 -26 -2 -35 0 -10 3 -2 5 17 5 19 0 27 -2
18 -5z m-1083 -13 c3 -5 1 -10 -4 -10 -6 0 -11 5 -11 10 0 6 2 10 4 10 3 0 8
-4 11 -10z m1003 3 c-10 -2 -28 -2 -40 0 -13 2 -5 4 17 4 22 1 32 -1 23 -4z
m-140 -10 c-27 -2 -69 -2 -95 0 -27 2 -5 3 47 3 52 0 74 -1 48 -3z m-2795 -62
c-2 -3 -16 8 -31 24 l-27 28 31 -24 c17 -13 30 -26 27 -28z m72 19 c-10 -11
-22 -20 -28 -20 -5 0 1 9 14 20 31 25 37 25 14 0z m2638 -47 c3 -16 4 -29 2
-31 -5 -6 -245 11 -245 18 0 7 156 36 206 39 27 1 32 -3 37 -26z m-743 -106
c13 -5 13 -6 -1 -6 -8 -1 -26 11 -40 27 l-24 27 25 -21 c14 -12 32 -24 40 -27z
m50 29 c0 -2 -8 -10 -17 -17 -16 -13 -17 -12 -4 4 13 16 21 21 21 13z"/>
<path d="M1518 3791 c-526 -168 -960 -310 -964 -314 -7 -7 -32 -779 -33 -1014
-1 -100 0 -103 22 -103 16 0 18 3 8 9 -11 7 -12 91 0 551 11 472 15 542 28
549 9 4 445 144 969 311 824 263 1002 324 940 319 -7 0 -444 -139 -970 -308z"/>
<path d="M2561 4084 c0 -11 3 -14 6 -6 3 7 2 16 -1 19 -3 4 -6 -2 -5 -13z"/>
<path d="M2562 4020 c0 -19 2 -27 5 -17 2 9 2 25 0 35 -3 9 -5 1 -5 -18z"/>
<path d="M2563 3920 c0 -30 2 -43 4 -27 2 15 2 39 0 55 -2 15 -4 2 -4 -28z"/>
<path d="M2564 3755 c0 -55 1 -76 3 -47 2 29 2 74 0 100 -2 26 -3 2 -3 -53z"/>
<path d="M2565 2905 c0 -407 1 -572 2 -367 2 206 2 539 0 740 -1 202 -2 34 -2
-373z"/>
<path d="M3503 3423 c32 -2 81 -2 110 0 29 2 3 3 -58 3 -60 0 -84 -1 -52 -3z"/>
<path d="M3368 3413 c12 -2 32 -2 45 0 12 2 2 4 -23 4 -25 0 -35 -2 -22 -4z"/>
<path d="M3293 3403 c9 -2 23 -2 30 0 6 3 -1 5 -18 5 -16 0 -22 -2 -12 -5z"/>
<path d="M3223 3393 c9 -2 23 -2 30 0 6 3 -1 5 -18 5 -16 0 -22 -2 -12 -5z"/>
<path d="M3163 3383 c9 -2 23 -2 30 0 6 3 -1 5 -18 5 -16 0 -22 -2 -12 -5z"/>
<path d="M3108 3373 c6 -2 18 -2 25 0 6 3 1 5 -13 5 -14 0 -19 -2 -12 -5z"/>
<path d="M1263 2393 c31 -2 83 -2 115 0 31 2 5 3 -58 3 -63 0 -89 -1 -57 -3z"/>
<path d="M968 2383 c34 -2 88 -2 120 0 31 2 3 3 -63 3 -66 0 -92 -1 -57 -3z"/>
<path d="M678 2373 c34 -2 90 -2 125 0 34 2 6 3 -63 3 -69 0 -97 -1 -62 -3z"/>
<path d="M537 2343 c18 -2 50 -2 70 0 21 2 7 4 -32 4 -38 0 -55 -2 -38 -4z"/>
<path d="M1505 2244 c-308 -6 -658 -13 -777 -14 -143 -1 -220 -5 -224 -12 -5
-8 40 -9 152 -5 87 4 524 12 969 18 446 6 830 15 855 19 65 11 -316 9 -975 -6z"/>
<path d="M3330 3325 c-58 -7 -126 -18 -152 -23 -50 -10 -98 -36 -98 -53 0 -6
7 -4 15 4 23 23 68 35 198 52 204 26 241 18 285 -66 22 -41 22 -42 2 -19 -70
83 -79 86 -250 65 -215 -25 -229 -34 -240 -147 -9 -90 -6 -236 5 -263 8 -18 7
-18 -8 -6 -14 11 -17 37 -20 155 l-3 141 0 -153 1 -154 31 -27 c29 -26 39 -29
187 -41 85 -7 165 -10 176 -7 12 3 24 0 28 -5 3 -7 1 -8 -5 -4 -29 18 -8 -4
26 -28 30 -20 49 -26 88 -25 l49 2 -57 6 c-31 3 -63 12 -70 20 -7 8 -8 11 -2
8 5 -3 36 -7 68 -8 50 -2 62 -7 86 -33 19 -20 26 -35 21 -45 -4 -9 -9 -35 -10
-59 -3 -53 20 -92 54 -92 41 0 55 25 55 95 0 52 3 64 18 68 9 3 -2 5 -25 6
-43 1 -58 16 -25 24 16 4 16 5 0 6 -16 1 -18 13 -18 99 0 110 12 147 31 94 6
-18 13 -31 16 -29 9 9 -47 130 -71 154 -14 14 -31 47 -39 74 -8 27 -27 63 -42
81 -14 18 -36 48 -48 67 -49 77 -92 88 -257 66z m304 -143 c3 -5 -7 -7 -22 -5
-15 2 -38 -2 -52 -10 -21 -11 -26 -22 -32 -79 -4 -36 -13 -79 -20 -94 -12 -26
-13 -21 -16 65 -3 117 6 131 84 131 29 0 55 -4 58 -8z m71 -282 c0 -22 -3 -40
-7 -40 -5 0 -8 18 -8 40 0 22 3 40 8 40 4 0 7 -18 7 -40z m-117 1 c3 -17 -2
-21 -23 -21 -32 0 -65 17 -65 33 0 8 15 12 42 11 36 -1 44 -5 46 -23z m76 -2
c-19 -21 -44 -25 -44 -8 0 17 32 38 48 32 10 -4 9 -9 -4 -24z m63 -111 c-2
-29 -3 -8 -3 47 0 55 1 79 3 53 2 -26 2 -71 0 -100z m-39 55 c-16 -2 -40 -2
-55 0 -16 2 -3 4 27 4 30 0 43 -2 28 -4z m-43 -63 l30 -35 -32 29 c-18 17 -33
34 -33 40 0 5 1 7 3 5 1 -2 16 -20 32 -39z m52 -22 c-2 -13 -4 -3 -4 22 0 25
2 35 4 23 2 -13 2 -33 0 -45z m68 -118 c8 -13 -5 -13 -25 0 -13 8 -13 10 2 10
9 0 20 -4 23 -10z"/>
<path d="M3072 3210 c0 -14 2 -19 5 -12 2 6 2 18 0 25 -3 6 -5 1 -5 -13z"/>
<path d="M3042 3140 c0 -14 2 -19 5 -12 2 6 2 18 0 25 -3 6 -5 1 -5 -13z"/>
<path d="M3042 3090 c0 -14 2 -19 5 -12 2 6 2 18 0 25 -3 6 -5 1 -5 -13z"/>
<path d="M3033 3005 c0 -22 2 -30 4 -17 2 12 2 30 0 40 -3 9 -5 -1 -4 -23z"/>
<path d="M3033 2875 c0 -44 2 -61 4 -37 2 23 2 59 0 80 -2 20 -4 1 -4 -43z"/>
<path d="M3760 2871 c0 -6 4 -13 10 -16 6 -3 7 1 4 9 -7 18 -14 21 -14 7z"/>
<path d="M3781 2804 c0 -11 3 -14 6 -6 3 7 2 16 -1 19 -3 4 -6 -2 -5 -13z"/>
<path d="M3806 2807 c3 -10 9 -15 12 -12 3 3 0 11 -7 18 -10 9 -11 8 -5 -6z"/>
<path d="M3158 2733 c12 -2 30 -2 40 0 9 3 -1 5 -23 4 -22 0 -30 -2 -17 -4z"/>
<path d="M3238 2723 c12 -2 30 -2 40 0 9 3 -1 5 -23 4 -22 0 -30 -2 -17 -4z"/>
<path d="M3318 2713 c12 -2 32 -2 45 0 12 2 2 4 -23 4 -25 0 -35 -2 -22 -4z"/>
<path d="M3423 2703 c15 -2 37 -2 50 0 12 2 0 4 -28 4 -27 0 -38 -2 -22 -4z"/>
<path d="M3548 2693 c23 -2 61 -2 85 0 23 2 4 4 -43 4 -47 0 -66 -2 -42 -4z"/>
<path d="M3026 2573 c-11 -12 -6 -30 9 -30 8 0 15 6 15 13 0 15 -15 26 -24 17z"/>
<path d="M3253 2483 c42 -2 112 -2 155 0 42 1 7 3 -78 3 -85 0 -120 -2 -77 -3z"/>
<path d="M3593 2473 c32 -2 81 -2 110 0 29 2 3 3 -58 3 -60 0 -84 -1 -52 -3z"/>
<path d="M3168 2453 c12 -2 30 -2 40 0 9 3 -1 5 -23 4 -22 0 -30 -2 -17 -4z"/>
<path d="M3303 2453 c31 -2 83 -2 115 0 31 2 5 3 -58 3 -63 0 -89 -1 -57 -3z"/>
<path d="M3518 2453 c17 -2 47 -2 65 0 17 2 3 4 -33 4 -36 0 -50 -2 -32 -4z"/>
<path d="M3258 2333 c100 -2 264 -2 365 0 100 1 18 2 -183 2 -201 0 -283 -1
-182 -2z"/>
<path d="M3150 2280 c0 -5 18 -10 40 -10 22 0 40 5 40 10 0 6 -18 10 -40 10
-22 0 -40 -4 -40 -10z"/>
<path d="M3250 2280 c0 -5 15 -10 33 -10 17 0 43 -3 57 -6 18 -4 21 -3 10 4
-23 15 -100 24 -100 12z"/>
<path d="M3093 2273 c9 -2 23 -2 30 0 6 3 -1 5 -18 5 -16 0 -22 -2 -12 -5z"/>
<path d="M3400 2239 c19 -12 46 -31 60 -43 l25 -21 -25 28 c-14 16 -37 35 -52
43 -42 22 -47 17 -8 -7z"/>
<path d="M3730 2211 c55 -5 65 -9 68 -26 3 -17 1 -17 -7 -5 -9 13 -11 13 -11
-2 0 -12 -8 -18 -25 -18 -18 0 -25 5 -25 20 0 16 -7 20 -32 20 -27 -1 -30 -2
-15 -11 24 -14 22 -38 -3 -32 -13 4 -20 14 -20 30 0 13 -4 21 -10 18 -17 -11
-11 -43 12 -59 14 -10 44 -16 80 -16 48 0 59 3 69 21 8 16 8 28 0 45 -10 22
-16 24 -78 22 l-68 -1 65 -6z m-13 -43 c-3 -8 -6 -5 -6 6 -1 11 2 17 5 13 3
-3 4 -12 1 -19z"/>
<path d="M3908 2453 c6 -2 18 -2 25 0 6 3 1 5 -13 5 -14 0 -19 -2 -12 -5z"/>
<path d="M4103 2653 c9 -2 25 -2 35 0 9 3 1 5 -18 5 -19 0 -27 -2 -17 -5z"/>
<path d="M4238 2643 c6 -2 18 -2 25 0 6 3 1 5 -13 5 -14 0 -19 -2 -12 -5z"/>
<path d="M4328 2633 c18 -2 45 -2 60 0 15 2 0 4 -33 4 -33 0 -45 -2 -27 -4z"/>
<path d="M4478 2623 c23 -2 59 -2 80 0 20 2 1 4 -43 4 -44 0 -61 -2 -37 -4z"/>
<path d="M4445 2475 c6 -2 60 -5 120 -7 61 -3 99 -1 85 3 -24 7 -225 11 -205
4z"/>
<path d="M4378 2463 c7 -3 16 -2 19 1 4 3 -2 6 -13 5 -11 0 -14 -3 -6 -6z"/>
<path d="M4707 2441 c17 -11 36 -28 42 -38 6 -10 11 -13 11 -6 0 14 -57 63
-73 63 -7 0 2 -9 20 -19z"/>
<path d="M4108 2163 c6 -2 18 -2 25 0 6 3 1 5 -13 5 -14 0 -19 -2 -12 -5z"/>
<path d="M4625 1990 c-110 -10 -204 -19 -208 -19 -4 -1 -7 -29 -5 -63 4 -78
-5 -76 222 -52 198 20 206 24 206 104 0 28 -3 49 -7 49 -5 -1 -98 -10 -208
-19z m195 -19 c0 -5 -8 -19 -19 -32 l-18 -23 1 32 c1 23 6 32 19 32 9 0 17 -4
17 -9z"/>
<path d="M1256 1784 c-15 -10 -17 -17 -9 -25 8 -8 14 -5 23 11 15 28 10 32
-14 14z"/>
<path d="M1262 1684 c10 -10 20 -16 22 -13 3 3 -5 11 -17 18 -21 13 -21 12 -5
-5z"/>
</g>
</svg>
