<?xml version="1.0" standalone="no"?>
<!DOCTYPE svg PUBLIC "-//W3C//DTD SVG 20010904//EN"
 "http://www.w3.org/TR/2001/REC-SVG-20010904/DTD/svg10.dtd">
<svg version="1.0" xmlns="http://www.w3.org/2000/svg"
 width="540.000000pt" height="540.000000pt" viewBox="0 0 540.000000 540.000000"
 preserveAspectRatio="xMidYMid meet">

<g transform="translate(0.000000,540.000000) scale(0.100000,-0.100000)"
fill="#000000" stroke="none">
<path d="M1860 3699 c-96 -5 -186 -10 -200 -12 -14 -3 63 -2 170 2 349 11 708
4 967 -18 382 -33 463 -56 798 -223 88 -44 213 -109 278 -145 65 -36 120 -63
123 -60 15 14 -572 307 -702 350 -149 49 -219 63 -419 81 -380 35 -649 42
-1015 25z"/>
<path d="M1558 3673 c7 -3 16 -2 19 1 4 3 -2 6 -13 5 -11 0 -14 -3 -6 -6z"/>
<path d="M1505 3600 c-110 -20 -195 -42 -190 -50 3 -4 -4 -6 -15 -3 -12 3 -20
0 -20 -6 0 -7 -5 -9 -10 -6 -12 8 -100 -24 -100 -36 0 -5 -7 -5 -17 -2 -12 5
-14 3 -8 -7 5 -8 4 -11 -3 -6 -12 7 -82 -23 -82 -36 0 -5 -4 -7 -9 -3 -5 3
-15 0 -23 -7 -7 -7 -20 -14 -28 -16 -8 -2 -21 -10 -27 -19 -7 -9 -13 -13 -13
-9 0 4 -13 -1 -30 -11 -16 -9 -30 -21 -30 -26 0 -4 -5 -5 -10 -2 -6 3 -13 -1
-16 -9 -3 -9 -12 -16 -19 -16 -23 0 -29 -39 -10 -60 10 -11 21 -17 25 -15 4 3
7 -3 6 -12 -2 -30 43 -44 121 -40 46 3 70 0 66 -6 -4 -6 22 -8 71 -5 44 3 72
1 64 -3 -8 -6 2 -9 27 -9 96 0 520 -57 868 -116 114 -19 176 -24 269 -22 70 2
123 7 125 13 3 11 -165 206 -185 213 -8 2 -10 -2 -5 -15 3 -10 3 -15 -1 -11
-4 3 -9 12 -10 20 -6 36 -42 80 -128 156 -188 166 -232 185 -448 188 -85 1
-177 -1 -205 -6z m673 -379 c57 -59 57 -59 37 -79 -47 -45 -84 -55 -176 -49
-119 8 -141 22 -160 104 -8 40 -8 40 102 13 46 -11 85 -18 87 -15 11 11 -14
25 -66 35 -31 6 -70 13 -85 16 -60 12 17 31 131 33 l74 1 56 -59z"/>
<path d="M2362 3589 c-112 -4 -206 -10 -209 -13 -3 -3 10 -18 28 -33 18 -15
103 -93 189 -172 186 -173 219 -197 284 -216 117 -33 225 -37 806 -25 311 7
582 16 603 21 37 10 47 22 27 34 -6 4 -9 1 -8 -7 7 -31 -43 -15 -127 40 -203
132 -623 353 -669 352 -6 -1 14 -11 44 -24 73 -31 200 -95 200 -101 0 -3 -8
-1 -19 4 -10 6 -33 13 -52 16 -18 3 -36 9 -39 13 -3 4 -12 7 -20 8 -8 1 -94
21 -190 45 -168 42 -173 44 -125 49 56 6 -300 21 -434 18 -47 0 -178 -5 -289
-9z"/>
<path d="M3178 3573 c12 -2 32 -2 45 0 12 2 2 4 -23 4 -25 0 -35 -2 -22 -4z"/>
<path d="M650 3250 c-8 -5 -10 -10 -5 -10 6 0 17 5 25 10 8 5 11 10 5 10 -5 0
-17 -5 -25 -10z"/>
<path d="M532 3142 c-12 -2 -29 -13 -36 -25 -14 -23 -33 -147 -22 -147 3 0 22
17 41 38 18 21 50 47 70 58 67 36 30 89 -53 76z"/>
<path d="M946 3118 c3 -5 10 -6 15 -3 13 9 11 12 -6 12 -8 0 -12 -4 -9 -9z"/>
<path d="M872 3084 c16 -15 124 -28 132 -16 3 5 -28 13 -69 18 -58 8 -72 7
-63 -2z"/>
<path d="M1148 3053 c7 -3 16 -2 19 1 4 3 -2 6 -13 5 -11 0 -14 -3 -6 -6z"/>
<path d="M1258 3033 c7 -3 16 -2 19 1 4 3 -2 6 -13 5 -11 0 -14 -3 -6 -6z"/>
<path d="M1579 3013 c-16 -9 -17 -12 -4 -7 11 4 28 6 38 6 20 -1 22 4 4 11 -7
3 -24 -2 -38 -10z"/>
<path d="M1495 2971 c29 -19 178 -42 163 -26 -8 8 -153 44 -178 44 -8 1 -1 -8
15 -18z"/>
<path d="M2848 2945 c-4 -4 24 -23 63 -41 86 -41 207 -122 274 -182 28 -25 69
-53 93 -63 45 -20 199 -43 359 -55 l91 -7 52 52 c46 46 51 54 38 67 -24 24
-336 133 -455 160 -65 14 -113 20 -113 15 0 -3 -4 -1 -8 5 -4 7 -24 15 -44 18
-21 3 -58 11 -84 16 -60 14 -257 25 -266 15z m174 -21 c4 -3 8 -13 8 -22 0 -9
5 -24 11 -32 8 -12 9 -11 4 6 -9 32 14 45 58 33 33 -9 37 -13 32 -37 -5 -24
-4 -24 4 -5 6 12 23 24 41 28 39 9 64 -9 26 -19 -66 -17 -26 -120 66 -167 65
-33 95 -26 155 37 38 40 62 57 86 61 20 3 37 1 41 -6 4 -6 20 -11 36 -11 26 0
152 -45 203 -71 18 -10 18 -12 -5 -36 -40 -43 -50 -44 -158 -27 -122 21 -126
30 -6 13 84 -12 88 -11 109 9 11 12 19 23 16 25 -13 11 -142 57 -159 57 -11 0
-47 -24 -79 -54 -32 -30 -72 -57 -89 -61 -57 -12 -189 40 -235 95 -36 42 -161
123 -264 171 -24 11 -43 23 -43 26 0 7 129 -5 142 -13z m316 -87 c44 -41 16
-139 -36 -120 -12 5 -11 8 7 14 26 10 35 31 27 64 -10 39 -35 43 -61 11 -20
-26 -55 -28 -55 -4 0 5 -4 6 -10 3 -18 -11 -10 12 13 37 19 20 30 24 58 20 19
-2 44 -14 57 -25z"/>
<path d="M3131 2824 c0 -11 3 -14 6 -6 3 7 2 16 -1 19 -3 4 -6 -2 -5 -13z"/>
<path d="M3470 2735 c-24 -25 -51 -45 -59 -45 -8 0 -12 -3 -8 -6 12 -13 47 9
82 51 20 25 35 45 33 45 -2 0 -24 -20 -48 -45z"/>
<path d="M4786 2837 c3 -10 9 -15 12 -12 3 3 0 11 -7 18 -10 9 -11 8 -5 -6z"/>
<path d="M4833 2809 c5 -39 5 -40 -14 -23 -18 16 -19 16 -19 -11 0 -21 -4 -26
-16 -21 -15 6 -15 4 -3 -11 7 -10 2 -8 -13 5 -26 23 -27 24 -159 13 -74 -6
-251 -15 -394 -21 -251 -9 -261 -10 -278 -31 -10 -12 -14 -26 -9 -31 15 -15
179 -78 228 -87 47 -9 369 1 482 15 63 8 107 40 117 84 4 17 9 30 13 30 3 0
33 -29 67 -65 l61 -66 -27 -32 c-14 -17 -40 -60 -57 -94 -18 -34 -35 -64 -40
-67 -23 -14 -168 -28 -362 -35 l-215 -7 -43 39 c-24 21 -72 52 -107 68 -61 29
-179 58 -191 47 -18 -19 134 -231 220 -306 58 -51 88 -56 311 -49 268 9 367
29 422 89 46 49 88 184 95 300 3 57 2 58 -51 120 -37 43 -42 52 -17 28 36 -34
38 -34 52 -16 18 26 18 42 -1 26 -24 -20 -30 -5 -29 69 0 53 -3 72 -14 76 -12
4 -14 -2 -9 -36z m-316 -486 c-20 -2 -52 -2 -70 0 -17 2 0 4 38 4 39 0 53 -2
32 -4z m-174 -10 c-7 -2 -21 -2 -30 0 -10 3 -4 5 12 5 17 0 24 -2 18 -5z m215
-40 c-15 -2 -42 -2 -60 0 -18 2 -6 4 27 4 33 0 48 -2 33 -4z m-130 -10 c-16
-2 -40 -2 -55 0 -16 2 -3 4 27 4 30 0 43 -2 28 -4z m160 -40 c-16 -2 -40 -2
-55 0 -16 2 -3 4 27 4 30 0 43 -2 28 -4z m-115 -10 c-18 -2 -48 -2 -65 0 -18
2 -4 4 32 4 36 0 50 -2 33 -4z"/>
<path d="M674 2786 c-17 -8 -40 -27 -51 -42 -66 -95 -98 -302 -66 -431 4 -17
1 -23 -12 -23 -23 0 -75 -54 -75 -78 0 -34 39 -70 113 -107 69 -34 90 -38 452
-91 353 -51 529 -80 1315 -213 478 -81 632 -95 1055 -95 363 0 463 6 1003 54
304 28 442 55 527 103 45 25 56 58 30 87 -25 28 -97 49 -207 62 -54 6 -98 14
-98 17 1 34 71 51 183 44 81 -5 84 -5 90 17 12 47 -5 50 -143 19 -138 -30
-335 -48 -595 -55 -127 -4 -239 -11 -250 -17 -26 -14 -106 -26 -99 -15 3 4 -4
8 -15 8 -23 0 -28 -15 -8 -23 9 -4 9 -6 -1 -6 -7 -1 -10 -5 -7 -11 9 -15 -667
-12 -725 3 l-45 12 -21 126 c-30 170 -57 268 -104 365 -87 181 -255 261 -391
187 -111 -60 -174 -208 -187 -440 -4 -62 -4 -114 -1 -115 8 -4 19 -88 11 -88
-4 0 -47 7 -97 14 -320 52 -823 119 -1082 145 -95 10 -176 21 -179 24 -4 3
-10 46 -15 95 -16 180 -68 335 -139 415 -56 65 -104 80 -166 53z m109 -61
c119 -57 169 -372 86 -536 -22 -45 -73 -89 -102 -89 -61 0 -132 96 -156 208
-41 197 28 424 132 431 5 1 23 -6 40 -14z m1978 -107 c45 -25 90 -78 124 -147
83 -165 77 -419 -14 -562 -65 -104 -166 -137 -255 -85 -230 135 -251 660 -31
792 52 31 123 32 176 2z"/>
<path d="M725 2700 c-30 -12 -61 -50 -82 -100 -14 -35 -18 -72 -18 -165 0
-143 18 -206 74 -266 45 -47 78 -50 118 -13 l28 26 -29 -21 c-50 -37 -91 -25
-131 38 -25 41 -56 142 -54 182 0 15 3 18 6 9 3 -8 12 -20 19 -26 8 -6 21 -38
30 -70 25 -96 75 -132 147 -105 48 19 79 182 57 301 -27 147 -98 238 -165 210z
m62 -192 c-3 -7 -5 -2 -5 12 0 14 2 19 5 13 2 -7 2 -19 0 -25z m-20 -28 c-5
-19 8 -29 15 -11 2 5 9 3 16 -5 10 -11 10 -14 -2 -14 -9 0 -12 -7 -9 -20 3
-11 11 -20 18 -20 7 0 19 -8 26 -17 13 -17 12 -17 -4 -4 -16 13 -20 13 -28 0
-5 -8 -9 -10 -9 -6 0 5 -15 -2 -32 -14 -33 -22 -33 -23 -14 -1 20 24 21 23
-33 87 l-26 30 33 -29 c17 -17 33 -24 33 -18 1 7 3 17 4 22 1 6 3 17 4 25 0 8
4 15 7 15 4 0 4 -9 1 -20z m30 -142 c-3 -8 -6 -5 -6 6 -1 11 2 17 5 13 3 -3 4
-12 1 -19z m-20 -50 c-2 -13 -4 -3 -4 22 0 25 2 35 4 23 2 -13 2 -33 0 -45z"/>
<path d="M2635 2595 c-177 -61 -232 -433 -96 -647 65 -102 161 -135 245 -85
80 49 125 152 133 307 14 261 -130 477 -282 425z m116 -202 c-16 -56 -14 -113
4 -119 9 -4 34 9 60 31 25 20 45 34 45 31 0 -3 -23 -24 -52 -46 -45 -37 -53
-39 -66 -26 -8 8 -15 29 -14 47 1 39 22 132 29 125 2 -2 0 -21 -6 -43z m-50
-100 c-5 -20 -28 -15 -58 13 l-28 26 29 -21 c16 -12 33 -21 37 -21 5 0 10 33
11 73 l1 72 6 -65 c3 -36 4 -71 2 -77z m-53 -36 c32 -29 27 -58 -15 -98 l-37
-34 32 38 c40 48 40 69 0 102 -18 15 -26 24 -18 20 8 -5 25 -17 38 -28z m90
-16 c5 -35 -7 -71 -23 -71 -21 0 -39 43 -31 75 9 34 49 32 54 -4z m-215 -68
c17 2 23 -8 36 -63 20 -78 60 -150 97 -175 40 -26 104 -31 142 -11 37 19 42 8
10 -21 -88 -80 -193 -47 -264 81 -35 64 -65 166 -63 218 l1 33 10 -32 c8 -24
16 -32 31 -30z m273 21 c18 -15 18 -15 -2 -5 -15 7 -24 7 -32 -1 -17 -17 -15
-40 8 -100 11 -28 18 -54 16 -56 -7 -6 -46 107 -46 131 0 22 16 47 30 47 3 0
15 -7 26 -16z m70 -45 c3 -6 -5 -3 -20 6 -14 10 -26 19 -26 22 0 7 39 -17 46
-28z m-148 -48 l-1 -56 -6 55 c-6 57 -16 64 -51 37 -9 -7 -6 -2 7 10 37 35 53
20 51 -46z m86 -97 c3 -8 2 -12 -4 -9 -6 3 -10 10 -10 16 0 14 7 11 14 -7z
m-77 -16 c-3 -8 -6 -5 -6 6 -1 11 2 17 5 13 3 -3 4 -12 1 -19z"/>
<path d="M3210 2432 c0 -27 46 -157 72 -203 38 -69 66 -79 271 -100 201 -21
287 -24 287 -10 0 25 -85 113 -132 137 -57 29 -472 194 -488 194 -6 0 -10 -8
-10 -18z"/>
<path d="M1808 2223 c7 -3 16 -2 19 1 4 3 -2 6 -13 5 -11 0 -14 -3 -6 -6z"/>
<path d="M1868 2213 c6 -2 18 -2 25 0 6 3 1 5 -13 5 -14 0 -19 -2 -12 -5z"/>
<path d="M1923 2203 c9 -2 23 -2 30 0 6 3 -1 5 -18 5 -16 0 -22 -2 -12 -5z"/>
<path d="M1983 2193 c9 -2 23 -2 30 0 6 3 -1 5 -18 5 -16 0 -22 -2 -12 -5z"/>
<path d="M2043 2183 c9 -2 23 -2 30 0 6 3 -1 5 -18 5 -16 0 -22 -2 -12 -5z"/>
<path d="M2103 2173 c9 -2 23 -2 30 0 6 3 -1 5 -18 5 -16 0 -22 -2 -12 -5z"/>
<path d="M2185 2159 c51 -10 92 -10 50 1 -16 4 -43 8 -60 8 -25 0 -24 -2 10
-9z"/>
<path d="M2283 2143 c9 -2 23 -2 30 0 6 3 -1 5 -18 5 -16 0 -22 -2 -12 -5z"/>
</g>
</svg>
