<?xml version="1.0" standalone="no"?>
<!DOCTYPE svg PUBLIC "-//W3C//DTD SVG 20010904//EN"
 "http://www.w3.org/TR/2001/REC-SVG-20010904/DTD/svg10.dtd">
<svg version="1.0" xmlns="http://www.w3.org/2000/svg"
 width="540.000000pt" height="540.000000pt" viewBox="0 0 540.000000 540.000000"
 preserveAspectRatio="xMidYMid meet">

<g transform="translate(0.000000,540.000000) scale(0.100000,-0.100000)"
fill="#000000" stroke="none">
<path d="M3674 4410 c-12 -4 -25 -24 -32 -47 -10 -35 -19 -43 -82 -73 -39 -19
-77 -44 -85 -56 -9 -14 -39 -29 -87 -44 -109 -32 -480 -144 -667 -201 -91 -28
-173 -48 -183 -46 -10 3 -112 -19 -226 -49 -114 -30 -238 -59 -277 -65 -83
-13 -116 -30 -139 -73 -9 -17 -43 -53 -75 -80 l-59 -48 -7 -95 c-4 -52 -6
-146 -3 -208 l4 -114 -52 29 c-30 18 -66 30 -87 30 -40 0 -202 -37 -231 -52
-34 -18 -118 -101 -143 -142 l-25 -39 12 -255 12 -255 53 -186 c28 -103 60
-202 70 -221 36 -70 120 -182 162 -217 42 -34 43 -37 43 -92 0 -73 23 -151 52
-179 13 -11 45 -30 71 -42 52 -23 52 -24 32 -60 -20 -35 -18 -117 5 -167 17
-38 28 -47 127 -96 93 -47 123 -56 217 -71 173 -27 307 -31 411 -12 61 11 93
21 100 32 6 10 17 23 25 30 8 7 98 91 199 186 162 152 188 181 215 238 29 60
31 74 32 175 l0 110 40 56 c29 40 44 75 53 123 13 65 13 68 -19 157 l-33 90
32 112 c17 62 31 126 31 143 0 38 -34 84 -122 164 -64 58 -68 64 -68 106 l0
44 75 0 c66 0 81 4 124 30 l49 31 164 -21 c89 -11 199 -24 243 -29 44 -5 107
-16 140 -25 151 -39 251 3 309 133 36 80 47 148 45 268 -2 98 -2 102 26 135
92 108 127 337 76 491 -42 125 -144 245 -236 278 -30 11 -34 17 -37 53 -3 40
-4 41 -45 44 -37 3 -43 6 -43 25 0 45 -118 75 -186 47z m56 -132 c0 -18 -16
-31 -76 -63 -90 -47 -177 -134 -195 -195 -10 -34 -18 -42 -48 -49 -331 -87
-860 -211 -892 -210 -30 0 327 102 616 175 121 30 236 59 255 64 29 8 38 18
53 55 26 62 108 134 201 176 53 24 76 39 76 52 0 9 2 17 5 17 3 0 5 -10 5 -22z
m-88 -127 c-145 -139 -175 -387 -69 -584 53 -100 140 -156 247 -158 43 -1 44
-1 15 -10 -46 -15 -118 0 -177 34 -233 140 -245 563 -19 734 61 47 62 41 3
-16z m122 -10 c-54 -38 -92 -86 -123 -151 -23 -48 -26 -68 -26 -160 0 -94 3
-111 28 -165 56 -121 163 -195 280 -195 37 0 48 -3 37 -10 -25 -16 -106 -11
-164 10 -68 26 -145 100 -183 177 -26 54 -28 67 -28 173 0 103 3 121 26 171
32 67 89 133 138 159 53 28 60 24 15 -9z m213 -46 c42 -18 70 -40 85 -69 8
-14 1 -12 -27 10 -55 41 -135 45 -190 9 -184 -121 -135 -465 67 -465 27 0 63
7 79 16 43 22 49 10 8 -16 -105 -64 -217 -39 -286 64 -43 63 -56 116 -50 198
13 185 172 312 314 253z m-1288 -545 c-5 -52 -8 -98 -9 -102 0 -5 -5 -8 -11
-8 -14 0 -7 279 7 301 15 23 22 -85 13 -191z m-686 -190 c-4 -8 -10 26 -13 80
l-6 95 -2 -97 c-1 -55 -6 -98 -12 -98 -5 0 -11 46 -13 103 l-3 102 -2 -107
c-1 -73 -6 -108 -13 -108 -9 0 -10 37 -6 138 4 75 7 149 7 165 0 41 18 33 23
-10 l4 -38 1 43 c2 45 18 57 25 20 4 -20 5 -18 8 7 2 17 5 -40 6 -125 2 -85 0
-161 -4 -170z m-109 128 c-4 -90 -10 -167 -15 -173 -11 -11 -11 35 -2 208 3
70 10 127 15 127 4 0 5 -73 2 -162z m33 95 c-4 -38 -7 -112 -7 -165 0 -59 -4
-98 -10 -98 -12 0 -13 60 -3 218 3 63 10 112 16 112 6 0 8 -25 4 -67z m-63
-105 c-7 -161 -9 -177 -20 -166 -9 10 8 328 18 328 5 0 6 -67 2 -162z m-28 60
c-3 -50 -6 -124 -6 -165 0 -45 -4 -73 -11 -73 -6 0 -10 27 -8 75 1 41 -1 78
-4 82 -4 3 -7 -30 -7 -75 0 -54 -4 -82 -11 -82 -8 0 -10 13 -5 38 3 20 6 92 6
160 0 135 17 169 23 45 l3 -78 2 83 c1 54 6 82 13 82 9 0 10 -25 5 -92z m254
-239 c0 -15 -7 -33 -16 -40 -15 -12 -16 -11 -8 11 4 14 7 39 6 55 -1 23 1 26
8 15 5 -8 10 -27 10 -41z m1760 31 c0 -5 -4 -10 -10 -10 -5 0 -17 -14 -26 -32
-20 -39 -13 -92 17 -124 l22 -24 -21 0 c-59 0 -86 127 -37 175 24 25 55 33 55
15z m-1060 -7 c0 -10 -498 -8 -507 1 -3 3 109 6 250 6 142 0 257 -3 257 -7z
m817 -230 c-9 -9 -281 -22 -437 -22 -213 1 -166 14 105 29 110 6 225 14 255
18 54 7 55 7 57 42 2 19 6 60 10 90 7 50 8 46 11 -49 1 -57 1 -105 -1 -108z
m-1328 130 c0 -42 -3 -52 -9 -38 -5 11 -9 34 -9 52 -1 31 -3 32 -48 36 -47 3
-47 3 10 5 l57 2 -1 -57z m-626 -39 c18 -9 51 -30 75 -46 39 -27 42 -32 42
-74 0 -33 12 -69 50 -144 62 -123 80 -196 80 -325 0 -147 -26 -230 -92 -291
-63 -60 -150 -90 -217 -76 -49 11 -48 26 2 39 58 16 137 70 161 112 13 23 19
52 19 91 0 136 -107 197 -239 136 -28 -13 -55 -29 -58 -35 -14 -22 -32 -10
-48 32 -9 23 -28 70 -42 103 -22 52 -27 87 -35 220 -10 156 -10 159 12 182 31
34 66 50 154 71 99 24 98 24 136 5z m1153 -89 c17 -13 16 -14 -16 -5 -19 6
-99 10 -177 10 -137 0 -142 -1 -172 -26 -24 -20 -39 -24 -68 -21 l-38 4 41 1
c32 2 45 8 58 27 l16 25 168 0 c132 0 172 -3 188 -15z m890 -26 c12 -21 89
-49 134 -49 43 -1 44 -1 25 -16 -45 -35 -144 -2 -176 59 -11 19 5 25 17 6z
m-2351 -362 c13 -34 36 -91 51 -127 20 -49 29 -91 35 -172 5 -70 13 -117 24
-136 24 -40 78 -74 129 -79 l44 -5 -1 -72 c-1 -50 4 -81 17 -104 16 -31 16
-35 1 -58 -8 -13 -20 -24 -26 -24 -20 0 -124 116 -162 181 -38 66 -51 103
-110 319 -34 122 -35 132 -40 360 -5 203 -4 218 4 107 7 -94 16 -145 34 -190z
m785 231 c0 -46 -3 -127 -7 -181 -5 -82 -9 -97 -22 -95 -17 4 -17 -7 -5 231 5
99 9 127 20 127 11 0 14 -18 14 -82z m761 -1 c3 -29 -5 -55 -32 -109 -53 -104
-132 -233 -137 -220 -6 20 18 325 28 337 11 14 140 7 141 -8z m-325 -94 c-3
-43 -11 -152 -16 -243 -12 -185 -19 -217 -56 -251 l-26 -24 26 39 c31 46 32
52 46 286 12 191 20 270 27 270 2 0 2 -35 -1 -77z m-116 -115 c0 -118 -16
-271 -31 -299 -22 -42 -69 -13 -95 58 -19 54 -18 187 2 229 15 32 99 114 117
114 4 0 7 -46 7 -102z m560 -6 l83 -78 -36 -127 c-36 -126 -36 -128 -21 -175
9 -26 27 -68 40 -94 13 -26 24 -58 24 -70 0 -13 -18 -55 -41 -93 -84 -143 -88
-155 -77 -211 13 -67 -4 -148 -43 -207 -16 -25 -89 -100 -162 -167 l-132 -121
-12 51 c-17 75 -23 73 -23 -9 0 -65 -3 -74 -26 -96 -33 -31 -90 -43 -110 -23
-8 7 -21 34 -29 58 l-15 45 5 -72 4 -73 -52 -2 c-176 -7 -437 22 -437 48 0 2
10 33 22 70 21 64 21 67 4 99 -10 18 -29 38 -43 44 -50 23 -14 21 138 -5 122
-20 174 -25 249 -21 158 9 174 17 406 215 112 96 202 177 200 179 -2 3 -74
-45 -160 -106 -85 -61 -159 -111 -163 -111 -5 0 -7 29 -5 65 2 36 2 65 -1 65
-3 0 -13 -34 -22 -75 -10 -46 -26 -86 -41 -104 -29 -35 -102 -67 -117 -52 -6
6 -13 43 -17 83 -5 63 -7 68 -13 38 -4 -19 -8 -57 -9 -85 l-3 -50 -120 1
c-118 1 -377 41 -395 61 -4 4 -4 37 0 73 15 115 2 134 -128 199 -53 27 -62 35
-52 47 17 20 24 19 125 -22 128 -50 275 -84 367 -84 87 0 290 32 344 55 20 8
52 28 70 45 33 29 344 366 374 405 21 27 -169 -147 -255 -234 -38 -39 -73 -71
-77 -71 -4 0 -8 21 -10 48 l-3 47 -8 -40 c-16 -85 -32 -119 -66 -142 -61 -41
-72 -31 -105 92 -3 11 -4 -15 -1 -57 l3 -77 -51 -11 c-29 -7 -106 -14 -172
-17 -103 -5 -133 -2 -205 16 -47 12 -86 24 -87 25 -2 2 4 22 12 46 21 59 19
116 -6 166 -20 43 -66 86 -106 98 -31 10 -29 18 9 46 67 49 292 73 429 46 46
-10 98 -24 115 -32 52 -25 264 8 299 46 8 9 19 48 25 87 8 59 17 83 53 135 24
35 70 105 102 156 32 50 61 92 64 92 4 0 44 -35 91 -78z m-1319 -132 c51 -28
65 -150 23 -207 -26 -34 -125 -84 -180 -91 -40 -4 -44 -2 -54 22 -5 15 -10 61
-10 102 l0 74 36 0 c51 0 73 16 95 66 21 47 47 56 90 34z m-91 -8 c0 -4 -12
-23 -27 -41 -19 -22 -38 -33 -58 -34 -47 -3 -43 15 9 51 47 31 76 40 76 24z
m660 -212 c0 -14 -14 -12 -28 2 -19 19 -14 30 8 18 11 -6 20 -15 20 -20z
m-430 -191 c55 -31 85 -82 82 -141 -2 -47 -25 -108 -40 -108 -4 0 -14 5 -22
10 -13 8 -12 15 7 50 27 50 14 52 -26 3 l-30 -36 -48 18 c-64 24 -68 28 -83
80 -15 54 -6 109 22 137 16 16 28 19 61 14 22 -4 57 -16 77 -27z m-100 -324
c115 -45 140 -79 80 -110 -31 -16 -50 -43 -50 -71 0 -13 5 -10 21 10 30 39 49
34 49 -13 0 -48 -11 -57 -47 -38 -16 7 -46 22 -68 33 -46 22 -64 54 -72 129
-6 55 0 85 15 85 4 0 37 -11 72 -25z m190 -353 c36 -17 55 -62 28 -62 -8 0
-23 -7 -34 -15 -18 -14 -17 -14 10 -5 16 6 31 8 34 6 9 -9 -9 -74 -24 -86 -18
-16 -86 4 -121 35 -28 24 -39 79 -24 118 9 24 16 27 53 27 24 0 59 -8 78 -18z"/>
<path d="M1451 2960 c-18 -4 -40 -15 -49 -23 -14 -15 -11 -15 33 -2 26 8 67
15 89 16 23 1 52 5 66 9 34 11 -93 11 -139 0z"/>
<path d="M1500 2877 c-26 -8 -30 -12 -15 -14 11 -2 40 3 65 11 40 12 41 14 15
14 -16 0 -46 -5 -65 -11z"/>
</g>
</svg>
